<svg width="24" height="24" viewBox="0 0 24 24" fill="none" xmlns="http://www.w3.org/2000/svg" data-seed-icon="true" data-seed-icon-version="0.7.3">
  <g>
    <mask id="mask0_3875_3710" style="mask-type:alpha" maskUnits="userSpaceOnUse" x="0" y="0" width="24" height="24">
      <rect width="24" height="24" fill="currentColor"/>
    </mask>
    <g mask="url(#mask0_3875_3710)">
      <path fill-rule="evenodd" clip-rule="evenodd" d="M12 6.425V12.5L11.5 13L10 11.5V8.85L8.675 10.175L8.50001 10C7.67158 9.17157 6.32843 9.17157 5.5 10C4.90275 10.5972 4.73609 11.462 5 12.2086V13L5.5 13L9.99999 17.5C10.128 17.628 10.2683 17.7362 10.417 17.8247C10.8634 18.09 11.3861 18.1773 11.8827 18.0867C11.7823 18.2721 11.6172 18.4141 11.3875 18.5125C10.9792 18.6875 10.6167 18.6167 10.3 18.3L7 15H4C3.71667 15 3.47917 14.9042 3.2875 14.7125C3.09583 14.5208 3 14.2833 3 14V10C3 9.71666 3.09583 9.47916 3.2875 9.2875C3.47917 9.09583 3.71667 9 4 9H7L10.3 5.7C10.6167 5.38333 10.9792 5.3125 11.3875 5.4875C11.7958 5.6625 12 5.975 12 6.425ZM19 13H17.5L19.417 11.083C19.5253 11.1306 19.6238 11.1988 19.7125 11.2875C19.9042 11.4792 20 11.7167 20 12C20 12.2833 19.9042 12.5208 19.7125 12.7125C19.5208 12.9042 19.2833 13 19 13ZM15.25 16.4C14.9833 16.4333 14.7667 16.5667 14.6 16.8C14.4333 17.0333 14.3667 17.2833 14.4 17.55C14.4333 17.8167 14.5667 18.0333 14.8 18.2L16.4 19.4C16.6333 19.5667 16.8833 19.6333 17.15 19.6C17.4167 19.5667 17.6333 19.4333 17.8 19.2C17.9667 18.9667 18.0333 18.7167 18 18.45C17.9667 18.1833 17.8333 17.9667 17.6 17.8L16 16.6C15.7667 16.4333 15.5167 16.3667 15.25 16.4ZM16 7.4L17.6 6.2C17.8333 6.03333 17.9667 5.81666 18 5.55C18.0333 5.28333 17.9667 5.03333 17.8 4.8C17.6333 4.56666 17.4167 4.43333 17.15 4.4C16.8833 4.36666 16.6333 4.43333 16.4 4.6L14.8 5.8C14.5667 5.96666 14.4333 6.18333 14.4 6.45C14.3667 6.71666 14.4333 6.96666 14.6 7.2C14.7667 7.43333 14.9833 7.56666 15.25 7.6C15.5167 7.63333 15.7667 7.56666 16 7.4ZM19.8543 6.33041L11.6073 14.5774L7.8121 10.7313C7.61748 10.5367 7.38636 10.4393 7.11876 10.4393C6.85116 10.4393 6.62005 10.5367 6.42543 10.7313C6.23081 10.9259 6.12945 11.157 6.12134 11.4246C6.11323 11.6922 6.20648 11.9233 6.4011 12.1179L10.9261 16.6696C11.1207 16.8642 11.3478 16.9615 11.6073 16.9615C11.8668 16.9615 12.0938 16.8642 12.2884 16.6696L21.2166 7.71708C21.4112 7.52246 21.5085 7.29135 21.5085 7.02374C21.5085 6.75614 21.4112 6.52503 21.2166 6.33041C21.022 6.13579 20.7949 6.03848 20.5354 6.03848C20.2759 6.03848 20.0489 6.13579 19.8543 6.33041Z" fill="currentColor"/>
    </g>
  </g>
</svg>
