<svg width="24" height="24" viewBox="0 0 24 24" fill="none" xmlns="http://www.w3.org/2000/svg" data-seed-icon="true" data-seed-icon-version="0.7.3">
  <g>
    <mask id="mask0_3875_3690" style="mask-type:alpha" maskUnits="userSpaceOnUse" x="0" y="0" width="24" height="24">
      <rect width="24" height="24" fill="currentColor"/>
    </mask>
    <g mask="url(#mask0_3875_3690)">
      <path fill-rule="evenodd" clip-rule="evenodd" d="M6 22C5.45 22 4.97917 21.8042 4.5875 21.4125C4.19583 21.0208 4 20.55 4 20V4C4 3.45 4.19583 2.97917 4.5875 2.5875C4.97917 2.19583 5.45 2 6 2H13.175C13.4417 2 13.6958 2.05 13.9375 2.15C14.1792 2.25 14.3917 2.39167 14.575 2.575L19.425 7.425C19.6083 7.60833 19.75 7.82083 19.85 8.0625C19.95 8.30417 20 8.55833 20 8.825V14C20 14.5523 19.5523 15 19 15H8C7.44772 15 7 15.4477 7 16V21C7 21.5523 6.55228 22 6 22ZM13 8C13 8.28333 13.0958 8.52083 13.2875 8.7125C13.4792 8.90417 13.7167 9 14 9H18L13 4V8ZM11 16V17H10C9.86868 17 9.73864 17.0259 9.61732 17.0761C9.49599 17.1264 9.38575 17.2 9.29289 17.2929C9.20003 17.3858 9.12638 17.496 9.07612 17.6173C9.02587 17.7386 9 17.8687 9 18V19C9 19.1313 9.02587 19.2614 9.07612 19.3827C9.12638 19.504 9.20003 19.6142 9.29289 19.7071C9.38575 19.8 9.49599 19.8736 9.61732 19.9239C9.73864 19.9741 9.86868 20 10 20H11V21H10C9.73736 21 9.47728 20.9483 9.23463 20.8478C8.99198 20.7472 8.7715 20.5999 8.58579 20.4142C8.40007 20.2285 8.25275 20.008 8.15224 19.7654C8.05173 19.5227 8 19.2626 8 19V18C8 17.7374 8.05173 17.4773 8.15224 17.2346C8.25275 16.992 8.40007 16.7715 8.58579 16.5858C8.7715 16.4001 8.99198 16.2528 9.23463 16.1522C9.47728 16.0517 9.73736 16 10 16H11ZM17 16H16L16 21H17C17.2626 21 17.5227 20.9483 17.7654 20.8478C18.008 20.7472 18.2285 20.5999 18.4142 20.4142C18.5999 20.2285 18.7472 20.008 18.8478 19.7654C18.9483 19.5227 19 19.2626 19 19V16H18V19C18 19.1313 17.9741 19.2614 17.9239 19.3827C17.8736 19.504 17.8 19.6142 17.7071 19.7071C17.6142 19.8 17.504 19.8736 17.3827 19.9239C17.2614 19.9741 17.1313 20 17 20V16ZM12 18V19H14C14 19.1313 13.9741 19.2614 13.9239 19.3827C13.8736 19.504 13.8 19.6142 13.7071 19.7071C13.6142 19.8 13.504 19.8736 13.3827 19.9239C13.2614 19.9741 13.1313 20 13 20H12V21H13C13.2626 21 13.5227 20.9483 13.7654 20.8478C14.008 20.7472 14.2285 20.5999 14.4142 20.4142C14.5999 20.2285 14.7472 20.008 14.8478 19.7654C14.9483 19.5227 15 19.2626 15 19V18H13C13 17.8687 13.0259 17.7386 13.0761 17.6173C13.1264 17.496 13.2 17.3858 13.2929 17.2929C13.3858 17.2 13.496 17.1264 13.6173 17.0761C13.7386 17.0259 13.8687 17 14 17H15V16H14C13.7374 16 13.4773 16.0517 13.2346 16.1522C12.992 16.2528 12.7715 16.4001 12.5858 16.5858C12.4001 16.7715 12.2528 16.992 12.1522 17.2346C12.0517 17.4773 12 17.7374 12 18Z" fill="currentColor"/>
    </g>
  </g>
</svg>
