<svg width="24" height="24" viewBox="0 0 24 24" fill="none" xmlns="http://www.w3.org/2000/svg" data-seed-icon="true" data-seed-icon-version="0.7.3">
  <g>
    <mask id="mask0_3875_3688" style="mask-type:alpha" maskUnits="userSpaceOnUse" x="0" y="0" width="24" height="24">
      <rect width="24" height="24" fill="currentColor"/>
    </mask>
    <g mask="url(#mask0_3875_3688)">
      <path fill-rule="evenodd" clip-rule="evenodd" d="M6 21C6 21.5523 5.52291 22.0286 5.04084 21.7591C4.87948 21.6689 4.72837 21.5534 4.5875 21.4125C4.19583 21.0208 4 20.55 4 20V4C4 3.45 4.19583 2.97917 4.5875 2.5875C4.97917 2.19583 5.45 2 6 2H13.175C13.4417 2 13.6958 2.05 13.9375 2.15C14.1792 2.25 14.3917 2.39167 14.575 2.575L19.425 7.425C19.6083 7.60833 19.75 7.82083 19.85 8.0625C19.95 8.30417 20 8.55833 20 8.825V14C20 14.5523 19.5523 15 19 15H7C6.44772 15 6 15.4477 6 16V21ZM13 8C13 8.28333 13.0958 8.52083 13.2875 8.7125C13.4792 8.90417 13.7167 9 14 9H18L13 4V8ZM7 17V16H8H9V19C9 19.2626 8.94827 19.5227 8.84776 19.7654C8.74725 20.008 8.59993 20.2285 8.41421 20.4142C8.2285 20.5999 8.00802 20.7472 7.76537 20.8478C7.52272 20.9483 7.26264 21 7 21V20C7.13132 20 7.26136 19.9741 7.38268 19.9239C7.50401 19.8736 7.61425 19.8 7.70711 19.7071C7.79997 19.6142 7.87362 19.504 7.92388 19.3827C7.97413 19.2614 8 19.1313 8 19V17H7ZM10 19V18C10 17.7374 10.0517 17.4773 10.1522 17.2346C10.2528 16.992 10.4001 16.7715 10.5858 16.5858C10.7715 16.4001 10.992 16.2528 11.2346 16.1522C11.4773 16.0517 11.7374 16 12 16H13V17H12C11.8687 17 11.7386 17.0259 11.6173 17.0761C11.496 17.1264 11.3858 17.2 11.2929 17.2929C11.2 17.3858 11.1264 17.496 11.0761 17.6173C11.0259 17.7386 11 17.8687 11 18H13V19C13 19.2626 12.9483 19.5227 12.8478 19.7654C12.7472 20.008 12.5999 20.2285 12.4142 20.4142C12.2285 20.5999 12.008 20.7472 11.7654 20.8478C11.5227 20.9483 11.2626 21 11 21H10V20H11C11.1313 20 11.2614 19.9741 11.3827 19.9239C11.504 19.8736 11.6142 19.8 11.7071 19.7071C11.8 19.6142 11.8736 19.504 11.9239 19.3827C11.9741 19.2614 12 19.1313 12 19H10ZM20 21H21V18C21 17.7374 20.9483 17.4773 20.8478 17.2346C20.7472 16.992 20.5999 16.7715 20.4142 16.5858C20.2285 16.4001 20.008 16.2528 19.7654 16.1522C19.5227 16.0517 19.2626 16 19 16H18V21H19V17C19.1313 17 19.2614 17.0259 19.3827 17.0761C19.504 17.1264 19.6142 17.2 19.7071 17.2929C19.8 17.3858 19.8736 17.496 19.9239 17.6173C19.9741 17.7386 20 17.8687 20 18V21ZM16 19.5V17.5C16 17.2239 15.7761 17 15.5 17C15.2239 17 15 17.2239 15 17.5V19.5C15 19.7761 15.2239 20 15.5 20C15.7761 20 16 19.7761 16 19.5ZM15.5 16C14.6716 16 14 16.6716 14 17.5V19.5C14 20.3284 14.6716 21 15.5 21C16.3284 21 17 20.3284 17 19.5V17.5C17 16.6716 16.3284 16 15.5 16Z" fill="currentColor"/>
    </g>
  </g>
</svg>
