<svg width="24" height="24" viewBox="0 0 24 24" fill="none" xmlns="http://www.w3.org/2000/svg" data-seed-icon="true" data-seed-icon-version="0.7.3">
  <g>
    <mask id="mask0_3875_3722" style="mask-type:alpha" maskUnits="userSpaceOnUse" x="0" y="0" width="24" height="24">
      <rect width="24" height="24" fill="currentColor"/>
    </mask>
    <g mask="url(#mask0_3875_3722)">
      <path fill-rule="evenodd" clip-rule="evenodd" d="M5.04084 21.7591C5.52291 22.0286 6 21.5523 6 21V16C6 15.4477 6.44772 15 7 15H7.5L5.5 13C4.67157 12.1716 4.67157 10.8284 5.5 10C6.32843 9.17157 7.67158 9.17157 8.50001 10L11.5 13L15.5 9H14C13.7167 9 13.4792 8.90417 13.2875 8.7125C13.0958 8.52083 13 8.28333 13 8V4L16.75 7.75L18.25 6.25L14.575 2.575C14.3917 2.39167 14.1792 2.25 13.9375 2.15C13.6958 2.05 13.4417 2 13.175 2H6C5.45 2 4.97917 2.19583 4.5875 2.5875C4.19583 2.97917 4 3.45 4 4V20C4 20.55 4.19583 21.0208 4.5875 21.4125C4.72837 21.5534 4.87948 21.6689 5.04084 21.7591ZM10.0514 17.5497C10.6461 18.1063 11.4831 18.2564 12.2086 18H13V19C13 19.2626 12.9483 19.5227 12.8478 19.7654C12.7472 20.008 12.5999 20.2285 12.4142 20.4142C12.2285 20.5999 12.008 20.7472 11.7654 20.8478C11.5227 20.9483 11.2626 21 11 21H10V20H11C11.1313 20 11.2614 19.9741 11.3827 19.9239C11.504 19.8736 11.6142 19.8 11.7071 19.7071C11.8 19.6142 11.8736 19.504 11.9239 19.3827C11.9741 19.2614 12 19.1313 12 19H10V18C10 17.8481 10.0173 17.697 10.0514 17.5497ZM20 10.5L15.5 15H19C19.5523 15 20 14.5523 20 14V10.5ZM8.5 16L9 16.5V19C9 19.2626 8.94827 19.5227 8.84776 19.7654C8.74725 20.008 8.59993 20.2285 8.41421 20.4142C8.2285 20.5999 8.00802 20.7472 7.76537 20.8478C7.52272 20.9483 7.26264 21 7 21V20C7.13132 20 7.26136 19.9741 7.38268 19.9239C7.50401 19.8736 7.61425 19.8 7.70711 19.7071C7.79997 19.6142 7.87362 19.504 7.92388 19.3827C7.97413 19.2614 8 19.1313 8 19V17H7V16H8H8.5ZM21 21H20V18C20 17.8687 19.9741 17.7386 19.9239 17.6173C19.8736 17.496 19.8 17.3858 19.7071 17.2929C19.6142 17.2 19.504 17.1264 19.3827 17.0761C19.2614 17.0259 19.1313 17 19 17V21H18V16H19C19.2626 16 19.5227 16.0517 19.7654 16.1522C20.008 16.2528 20.2285 16.4001 20.4142 16.5858C20.5999 16.7715 20.7472 16.992 20.8478 17.2346C20.9483 17.4773 21 17.7374 21 18V21ZM16 17.5V19.5C16 19.7761 15.7761 20 15.5 20C15.2239 20 15 19.7761 15 19.5V17.5C15 17.2239 15.2239 17 15.5 17C15.7761 17 16 17.2239 16 17.5ZM14 17.5C14 16.6716 14.6716 16 15.5 16C16.3284 16 17 16.6716 17 17.5V19.5C17 20.3284 16.3284 21 15.5 21C14.6716 21 14 20.3284 14 19.5V17.5ZM19.8543 6.33041L11.6073 14.5774L7.8121 10.7313C7.61748 10.5367 7.38636 10.4394 7.11876 10.4394C6.85116 10.4394 6.62005 10.5367 6.42543 10.7313C6.23081 10.9259 6.12945 11.157 6.12134 11.4246C6.11323 11.6922 6.20648 11.9233 6.4011 12.1179L10.9261 16.6696C11.1207 16.8642 11.3478 16.9615 11.6073 16.9615C11.8668 16.9615 12.0938 16.8642 12.2884 16.6696L21.2166 7.71708C21.4112 7.52246 21.5085 7.29135 21.5085 7.02375C21.5085 6.75614 21.4112 6.52503 21.2166 6.33041C21.022 6.13579 20.7949 6.03848 20.5354 6.03848C20.2759 6.03848 20.0489 6.13579 19.8543 6.33041Z" fill="currentColor"/>
    </g>
  </g>
</svg>
