<svg width="24" height="24" viewBox="0 0 24 24" fill="none" xmlns="http://www.w3.org/2000/svg" data-seed-icon="true" data-seed-icon-version="0.7.3">
  <g>
    <mask id="mask0_3875_3696" style="mask-type:alpha" maskUnits="userSpaceOnUse" x="0" y="0" width="24" height="24">
      <rect width="24" height="24" fill="currentColor"/>
    </mask>
    <g mask="url(#mask0_3875_3696)">
      <path fill-rule="evenodd" clip-rule="evenodd" d="M13 3C13 2.44772 12.5523 2 12 2C11.4477 2 11 2.44772 11 3V6.07454C9.75921 6.26564 8.67588 6.82412 7.75 7.75C6.82412 8.67588 6.26564 9.75921 6.07454 11H3C2.44772 11 2 11.4477 2 12C2 12.5523 2.44772 13 3 13H6.07454C6.26564 14.2408 6.82412 15.3241 7.75 16.25C8.67588 17.1759 9.75921 17.7344 11 17.9255V21C11 21.5523 11.4477 22 12 22C12.5523 22 13 21.5523 13 21V17.9255C14.2408 17.7344 15.3241 17.1759 16.25 16.25C17.1759 15.3241 17.7344 14.2408 17.9255 13H21C21.5523 13 22 12.5523 22 12C22 11.4477 21.5523 11 21 11H20.426C20.0619 11.0947 19.6782 11.0947 19.314 11H17.9255C17.8536 10.5332 17.7297 10.0887 17.5538 9.66647L17.5355 9.64818L16.7573 10.4264C16.5007 10.683 16.1964 10.863 15.873 10.9664L15.8815 11H15.757C15.3928 11.0947 15.0092 11.0947 14.645 11H13.7356C13.6491 10.8539 13.5414 10.7164 13.4125 10.5875C13.2836 10.4586 13.1461 10.3509 13 10.2644V8.87104V8.86899V8.11848C13.0404 8.12853 13.0805 8.13922 13.1204 8.15055C13.2258 7.84484 13.4006 7.55773 13.6447 7.31367L14.4228 6.53551L14.3335 6.44621C13.9113 6.27032 13.4668 6.14643 13 6.07454V3ZM11 8.11848C10.3179 8.28824 9.70959 8.64041 9.175 9.175C8.64041 9.70959 8.28824 10.3179 8.11848 11H10.2644C10.3509 10.8539 10.4586 10.7164 10.5875 10.5875C10.7164 10.4586 10.8539 10.3509 11 10.2644V8.11848ZM11 13.7356C10.8539 13.6491 10.7164 13.5414 10.5875 13.4125C10.4586 13.2836 10.3509 13.1461 10.2644 13H8.11848C8.28824 13.6821 8.64041 14.2904 9.175 14.825C9.70959 15.3596 10.3179 15.7118 11 15.8815V13.7356ZM13 15.8815V13.7356C13.1461 13.6491 13.2836 13.5414 13.4125 13.4125C13.5414 13.2836 13.6491 13.1461 13.7356 13H15.8815C15.7118 13.6821 15.3596 14.2904 14.825 14.825C14.2904 15.3596 13.6821 15.7118 13 15.8815ZM20.3639 7.94975C20.7545 8.34027 20.7545 8.97344 20.3639 9.36396C19.9734 9.75449 19.3402 9.75449 18.9497 9.36396L17.5355 7.94978L16.1213 9.36399C15.7308 9.75451 15.0976 9.75451 14.7071 9.36399C14.3166 8.97346 14.3166 8.3403 14.7071 7.94977L16.1213 6.53556L14.7071 5.12132C14.3166 4.7308 14.3166 4.09763 14.7071 3.70711C15.0976 3.31658 15.7308 3.31658 16.1213 3.70711L17.5355 5.12135L18.9497 3.70713C19.3403 3.31661 19.9734 3.31661 20.364 3.70713C20.7545 4.09766 20.7545 4.73082 20.364 5.12135L18.9497 6.53556L20.3639 7.94975Z" fill="currentColor"/>
    </g>
  </g>
</svg>
