<svg width="24" height="24" viewBox="0 0 24 24" fill="none" xmlns="http://www.w3.org/2000/svg" data-seed-icon="true" data-seed-icon-version="0.7.3">
  <g>
    <mask id="mask0_3875_2914" style="mask-type:alpha" maskUnits="userSpaceOnUse" x="0" y="0" width="24" height="24">
      <rect width="24" height="24" fill="currentColor"/>
    </mask>
    <g mask="url(#mask0_3875_2914)">
      <path fill-rule="evenodd" clip-rule="evenodd" d="M3.5875 21.4125C3.97917 21.8042 4.45 22 5 22H19C19.55 22 20.0208 21.8042 20.4125 21.4125C20.8042 21.0208 21 20.55 21 20V6C21 5.45 20.8042 4.97917 20.4125 4.5875C20.0208 4.19583 19.55 4 19 4H18V2H16V4H8V2H6V4H5C4.45 4 3.97917 4.19583 3.5875 4.5875C3.19583 4.97917 3 5.45 3 6V20C3 20.55 3.19583 21.0208 3.5875 21.4125ZM19 20H5V10V8V6H19V8V10V20ZM17 10H7V8H17V10ZM7 12V14H17V12H7ZM7 16V18H14V16H7Z" fill="currentColor"/>
    </g>
  </g>
</svg>
