<svg width="24" height="24" viewBox="0 0 24 24" fill="none" xmlns="http://www.w3.org/2000/svg" data-seed-icon="true" data-seed-icon-version="0.7.3">
  <g>
    <mask id="mask0_3875_3708" style="mask-type:alpha" maskUnits="userSpaceOnUse" x="0" y="0" width="24" height="24">
      <rect width="24" height="24" fill="currentColor"/>
    </mask>
    <g mask="url(#mask0_3875_3708)">
      <g>
        <path d="M13 14.6875C12.8465 14.6875 12.7179 14.6356 12.6141 14.5318C12.5102 14.4279 12.4583 14.2993 12.4583 14.1458C12.4583 13.9923 12.5102 13.8637 12.6141 13.7599C12.7179 13.6561 12.8465 13.6041 13 13.6041H15.2124C15.3658 13.6041 15.4945 13.6561 15.5983 13.7599C15.7021 13.8637 15.754 13.9923 15.754 14.1458C15.754 14.2993 15.7021 14.4279 15.5983 14.5318C15.4945 14.6356 15.3658 14.6875 15.2124 14.6875H13ZM14.0846 17.8427C13.0546 17.8427 12.181 17.484 11.4637 16.7667C10.7464 16.0494 10.3877 15.1758 10.3877 14.1458C10.3877 13.1159 10.7464 12.2422 11.4637 11.5249C12.181 10.8076 13.0546 10.4489 14.0846 10.4489C15.1145 10.4489 15.9882 10.8076 16.7055 11.5249C17.4228 12.2422 17.7815 13.1159 17.7815 14.1458C17.7815 14.5532 17.7234 14.9292 17.6072 15.2736C17.491 15.618 17.3348 15.9206 17.1385 16.1812L20.1106 19.1609C20.2457 19.3011 20.3132 19.4696 20.3132 19.6664C20.3132 19.8633 20.2431 20.0292 20.103 20.1642C19.968 20.2992 19.8007 20.3667 19.6014 20.3667C19.4019 20.3667 19.2347 20.2992 19.0997 20.1642L16.1353 17.1998C15.8695 17.396 15.5619 17.5522 15.2124 17.6684C14.8628 17.7846 14.4869 17.8427 14.0846 17.8427ZM14.0846 16.4073C14.7157 16.4073 15.2504 16.1881 15.6887 15.7499C16.1269 15.3117 16.346 14.777 16.346 14.1458C16.346 13.5147 16.1269 12.98 15.6887 12.5417C15.2504 12.1035 14.7157 11.8844 14.0846 11.8844C13.4534 11.8844 12.9187 12.1035 12.4805 12.5417C12.0423 12.98 11.8231 13.5147 11.8231 14.1458C11.8231 14.777 12.0423 15.3117 12.4805 15.7499C12.9187 16.1881 13.4534 16.4073 14.0846 16.4073Z" fill="currentColor"/>
        <path d="M6.83479 8.56279L7.61531 9.34331C7.76071 9.49294 7.83448 9.67407 7.8366 9.8867C7.83871 10.0993 7.76494 10.2805 7.61531 10.4301C7.46566 10.5797 7.28559 10.6546 7.07508 10.6546C6.86457 10.6546 6.68449 10.5797 6.53486 10.4301L4.43486 8.33833C4.36004 8.26351 4.3036 8.17834 4.26556 8.0828C4.22752 7.98727 4.2085 7.88962 4.2085 7.78986C4.2085 7.6901 4.22752 7.59246 4.26556 7.49693C4.3036 7.4014 4.36004 7.31622 4.43486 7.2414L6.52662 5.14964C6.67625 5 6.85495 4.92518 7.06272 4.92518C7.27048 4.92518 7.45193 5 7.60705 5.14964C7.76219 5.29928 7.83976 5.48042 7.83976 5.69304C7.83976 5.90566 7.76219 6.08953 7.60705 6.24467L6.84303 7.00869L17.017 7.00868L16.2447 6.23642C16.0993 6.08677 16.0256 5.90564 16.0234 5.69303C16.0213 5.4804 16.0978 5.29927 16.253 5.14962C16.4026 4.99999 16.5827 4.92517 16.7932 4.92517C17.0037 4.92517 17.1838 4.99999 17.3334 5.14962L19.4252 7.24138C19.5 7.31621 19.5564 7.40138 19.5945 7.49691C19.6325 7.59244 19.6515 7.69009 19.6515 7.78985C19.6515 7.88961 19.6325 7.98725 19.5945 8.08278C19.5564 8.17832 19.5 8.2635 19.4252 8.33831L17.3334 10.4301C17.1838 10.5797 17.0051 10.6545 16.7973 10.6545C16.5896 10.6545 16.4081 10.5797 16.253 10.4301C16.0978 10.2804 16.0189 10.0993 16.0161 9.88668C16.0134 9.67406 16.0896 9.49018 16.2447 9.33504L17.017 8.56278L6.83479 8.56279Z" fill="currentColor"/>
      </g>
    </g>
  </g>
</svg>
