<svg width="24" height="24" viewBox="0 0 24 24" fill="none" xmlns="http://www.w3.org/2000/svg" data-seed-icon="true" data-seed-icon-version="0.7.3">
  <g>
    <mask id="mask0_3875_3718" style="mask-type:alpha" maskUnits="userSpaceOnUse" x="0" y="0" width="24" height="24">
      <rect width="24" height="24" fill="currentColor"/>
    </mask>
    <g mask="url(#mask0_3875_3718)">
      <path fill-rule="evenodd" clip-rule="evenodd" d="M6 22C5.45 22 4.97917 21.8042 4.5875 21.4125C4.19583 21.0208 4 20.55 4 20V4C4 3.45 4.19583 2.97917 4.5875 2.5875C4.97917 2.19583 5.45 2 6 2H13.175C13.4417 2 13.6958 2.05 13.9375 2.15C14.1792 2.25 14.3917 2.39167 14.575 2.575L19.425 7.425C19.6083 7.60833 19.75 7.82083 19.85 8.0625C19.95 8.30417 20 8.55833 20 8.825V14C20 14.5523 19.5523 15 19 15H8C7.44772 15 7 15.4477 7 16V21C7 21.5523 6.55228 22 6 22ZM13 8C13 8.28333 13.0958 8.52083 13.2875 8.7125C13.4792 8.90417 13.7167 9 14 9H18L13 4V8ZM9 16H8V17C8 17.2626 8.05173 17.5227 8.15224 17.7654C8.25275 18.008 8.40007 18.2285 8.58579 18.4142C8.61537 18.4438 8.64583 18.4724 8.67712 18.5C8.64583 18.5276 8.61537 18.5562 8.58579 18.5858C8.40007 18.7715 8.25275 18.992 8.15224 19.2346C8.05173 19.4773 8 19.7374 8 20V21H9V20C9 19.8687 9.02587 19.7386 9.07612 19.6173C9.12638 19.496 9.20004 19.3858 9.29289 19.2929C9.35482 19.231 9.42448 19.1776 9.5 19.134C9.57552 19.1776 9.64518 19.231 9.70711 19.2929C9.79996 19.3858 9.87362 19.496 9.92388 19.6173C9.97413 19.7386 10 19.8687 10 20V21H11V20C11 19.7374 10.9483 19.4773 10.8478 19.2346C10.7472 18.992 10.5999 18.7715 10.4142 18.5858C10.3846 18.5562 10.3542 18.5276 10.3229 18.5C10.3542 18.4724 10.3846 18.4438 10.4142 18.4142C10.5999 18.2285 10.7472 18.008 10.8478 17.7654C10.9483 17.5227 11 17.2626 11 17V16H10V17C10 17.1313 9.97413 17.2614 9.92388 17.3827C9.87362 17.504 9.79996 17.6142 9.70711 17.7071C9.64518 17.769 9.57552 17.8224 9.5 17.866C9.42448 17.8224 9.35482 17.769 9.29289 17.7071C9.20004 17.6142 9.12638 17.504 9.07612 17.3827C9.02587 17.2614 9 17.1313 9 17V16ZM17 17.5V20.9474H16V17.5C16 17.2239 15.7761 17 15.5 17C15.2239 17 15 17.2239 15 17.5V20.9474H14V17.5C14 17.2239 13.7761 17 13.5 17C13.2239 17 13 17.2239 13 17.5V20.9474H12V17.5C12 16.6716 12.6716 16 13.5 16C13.8842 16 14.2346 16.1444 14.5 16.3819C14.7654 16.1444 15.1158 16 15.5 16C16.3284 16 17 16.6716 17 17.5ZM19 16H18V20V21H19H21V20H19V16Z" fill="currentColor"/>
    </g>
  </g>
</svg>
